<?xml version="1.0" standalone="no"?><!DOCTYPE svg PUBLIC "-//W3C//DTD SVG 1.1//EN" "http://www.w3.org/Graphics/SVG/1.1/DTD/svg11.dtd"><svg t="1613809810989" class="icon" viewBox="0 0 1024 1024" version="1.1" xmlns="http://www.w3.org/2000/svg" p-id="2656" xmlns:xlink="http://www.w3.org/1999/xlink" width="200" height="200"><defs><style type="text/css"></style></defs><path d="M470.784 140.885333c-164.522667 17.706667-300.714667 146.389333-327.125333 309.546667a373.077333 373.077333 0 0 0 31.146666 221.653333 31.018667 31.018667 0 0 1 2.901334 21.034667l-29.781334 119.125333a52.650667 52.650667 0 0 0 63.914667 63.786667l118.698667-29.653333a32.213333 32.213333 0 0 1 21.589333 2.901333 373.205333 373.205333 0 0 0 221.44 31.061333c163.2-26.453333 291.925333-162.602667 309.546667-327.168a373.461333 373.461333 0 0 0-401.152-413.312l-11.178667 1.024z m348.714667 405.461334c-14.592 135.936-121.472 249.002667-256.128 270.805333a309.205333 309.205333 0 0 1-183.765334-25.685333l-7.765333-3.328a94.506667 94.506667 0 0 0-56.874667-3.84l-100.352 25.045333 25.173334-100.693333a94.592 94.592 0 0 0-7.210667-64.170667 309.034667 309.034667 0 0 1-25.728-183.808c21.76-134.656 134.826667-241.536 270.805333-256.170667a309.504 309.504 0 0 1 341.845334 341.845334z" fill="#1A1A1A" p-id="2657"></path></svg>