<?xml version="1.0" standalone="no"?><!DOCTYPE svg PUBLIC "-//W3C//DTD SVG 1.1//EN" "http://www.w3.org/Graphics/SVG/1.1/DTD/svg11.dtd"><svg t="1613809784195" class="icon" viewBox="0 0 1024 1024" version="1.1" xmlns="http://www.w3.org/2000/svg" p-id="1912" xmlns:xlink="http://www.w3.org/1999/xlink" width="200" height="200"><defs><style type="text/css"></style></defs><path d="M671 192.2c-30 29.2-86.2 112.2-86.201 166.6 0 12.601 2.8 23.6 8.6 32.6 17 26.6 30.2 47.8 30.2 58 0 5.6-5 11.6-16.4 24.8l-2 2.2c-31.8 36.6-40 44.4-54.8 58.6l-3.8 3.601c-2.6 2.6-5 4.801-7.2 7-12.8 12.4-22 21.4-58 53.2l-1.599 1.4c-17.2 15.2-28.4 25.2-36.6 25.799-8 0.6-21-6.4-45.2-24.2-29.2-21.6-65.2-22.4-107-2.6-33 15.8-64.6 41.601-92.4 64.4l-2.4 2c-24 19.6-36 42.4-36 67.8 0 28.199 15.2 51.6 23.2 64 0.6 1 1.4 2 2 3 17.601 27.8 41.8 48 66.4 55.6 37 11.4 85 19 184.8-35.6 86.4-47.199 144.4-90 214.2-158 65.6-64 86.8-92.4 132.8-156 51.2-70.8 80.6-138.8 80.6-186.4 0-44.2 0-78.999-59.8-128.6-62.8-52-101.2-30.4-133.4 0.8zM782.8 215.2c48.4 40 48.4 63 48.4 104.599 0 40.601-28 103.6-74.6 168.4-44.8 62-65.4 89.6-129.2 151.8-67.4 65.801-123.6 107.2-207 152.8-88.2 48.2-126.8 42.8-158.601 33-17-5.2-35.2-20.8-48.399-42-0.6-1-1.4-2-2-3.2-6.8-10.6-18.2-28.2-18.2-47.4 0-16 7.999-30.2 24.6-43.8l2.4-2c62.4-51 117.6-90.8 158.4-60.8 28.6 21.2 48 32.4 68 30.6 19.4-1.599 34-14.6 56-34.2l1.599-1.4c36.4-32.2 46-41.4 59-54.2 2.2-2.2 4.6-4.4 7.2-7l3.8-3.601c15.4-14.8 23.801-23 56.8-60.6l2-2.2c14-16 24.2-27.801 24.2-45 0-17.801-11.2-37.4-35-74.6-2.4-3.8-3.8-9.199-3.8-16 0-43.399 49.6-118.201 76.6-144.4 24.4-24 42.8-36 87.8 1.201z" p-id="1913"></path></svg>